<?xml version="1.0" encoding="UTF-8"?>
<svg width="321px" height="111px" viewBox="0 0 321 111" version="1.1" xmlns="http://www.w3.org/2000/svg" xmlns:xlink="http://www.w3.org/1999/xlink">
    <title>logo-creative-tim</title>
    <g id="logo-creative-tim" stroke="none" stroke-width="1" fill="none" fill-rule="evenodd">
        <g id="logo-creative-tim-white-copy" transform="translate(12.000000, 11.000000)">
            <rect id="Rectangle" fill="#FFFFFF" x="0" y="0" width="89" height="89" rx="44.5"></rect>
            <g id="Group" transform="translate(115.000000, 5.000000)" fill="#FFFFFF" fill-rule="nonzero">
                <g>
                    <g id="c">
                        <path d="M7.66508472,31.2971763 C5.33176527,30.0056408 3.3861421,28.0691401 2.04241357,25.7008679 C-0.680804523,20.7026073 -0.680804523,14.5830978 2.04241357,9.58483732 C3.39061775,7.21919916 5.33502431,5.28246396 7.66508472,3.98434953 C10.1342802,2.61183719 12.8984593,1.91571101 15.6974721,1.96148678 C17.9495748,1.93240367 20.1842164,2.37589545 22.267965,3.26548095 C23.8125551,3.93785924 25.2245077,4.90137027 26.4327579,6.10751953 C26.6685816,6.34822378 26.7990999,6.6791282 26.793785,7.02283516 C26.7884703,7.3665421 26.6477883,7.69290496 26.4046445,7.92558834 L24.6214545,9.6684267 C24.1576444,10.122245 23.4346091,10.122245 22.9707989,9.6684267 C21.0526013,7.85212047 18.5394296,6.86818945 15.9464761,6.91833643 C14.0639608,6.88541701 12.2050175,7.35753127 10.5487118,8.28920209 C8.98847698,9.17232073 7.69730698,10.4928155 6.82168406,12.1008774 C5.04094528,15.5557529 5.04094528,19.709055 6.82168406,23.1639305 C7.69730698,24.7719924 8.98847698,26.0924871 10.5487118,26.9756057 C12.2050175,27.9072766 14.0639608,28.3793909 15.9464761,28.3464715 C18.5423407,28.3947199 21.056377,27.400907 22.9667826,25.5713043 C23.4316824,25.1122225 24.1605709,25.1122225 24.6254707,25.5713043 L26.4126768,27.343399 C26.652739,27.5764277 26.7910345,27.9013056 26.7958091,28.2429062 C26.8001317,28.5845066 26.6705394,28.9132475 26.436774,29.1531088 C25.2223269,30.3641759 23.801827,31.3293606 22.247884,31.9993269 C20.1557744,32.8895919 17.9134068,33.334412 15.6532939,33.3075006 C12.8703145,33.3486046 10.1224932,32.6570839 7.66508472,31.2971763 Z" id="Path"></path>
                        <path d="M45.9355295,11.063827 L45.9355295,13.5467039 C45.9355295,14.2404248 45.3757104,14.8027968 44.685253,14.8027968 L44.685253,14.8027968 C42.5710534,14.8027968 40.9208109,15.4210736 39.7345254,16.6576272 C38.54824,17.8941809 37.9550972,19.676437 37.9550972,22.0043959 L37.9550972,32.0531386 C37.9550972,32.7468597 37.395371,33.3092316 36.7049136,33.3092316 L33.7878182,33.3092316 C33.0973608,33.3092316 32.5376344,32.7468597 32.5376344,32.0531386 L32.5376344,11.2773628 C32.5376344,10.5836419 33.0973608,10.0212699 33.7878182,10.0212699 L36.4382077,10.0212699 C37.1286651,10.0212699 37.6883914,10.5836419 37.6883914,11.2773628 L37.6883914,13.4169077 C39.0774844,11.2620106 41.3833788,10.0561614 44.6060747,9.79936021 C44.9525899,9.77725298 45.292648,9.90092936 45.5447915,10.1407639 C45.7969348,10.3805984 45.9384495,10.7149859 45.9355295,11.063827 L45.9355295,11.063827 Z" id="Path"></path>
                        <path d="M69.619884,23.2549682 L53.1379238,23.2549682 C53.4011737,24.8654728 54.270178,26.3069857 55.5593674,27.2716831 C56.9713749,28.2943555 58.6725236,28.815853 60.4022548,28.7563004 C62.2928749,28.8049163 64.1433104,28.1940182 65.6487163,27.0242469 C66.1616167,26.6346572 66.8825203,26.7195173 67.295298,27.2180719 L68.5746275,28.7191849 C69.0002893,29.2139367 68.9718999,29.9627535 68.5100556,30.422371 C67.6254497,31.259103 66.5945006,31.9180524 65.4711437,32.3647454 C61.6457656,33.7948731 57.4184541,33.594268 53.7392489,31.808014 C51.9241286,30.8656985 50.4125252,29.4098162 49.3846859,27.6139697 C48.3458819,25.7663518 47.8159437,23.6658255 47.851105,21.5352865 C47.820152,19.4222762 48.3352213,17.3383108 49.3443285,15.4937185 C50.3127222,13.7279248 51.7475664,12.2760136 53.4849973,11.3037984 C55.3159282,10.2849269 57.3733078,9.76644391 59.4578918,9.79856133 C61.5069987,9.76306556 63.5296761,10.2748106 65.3258571,11.2831787 C67.0313201,12.2530571 68.4311745,13.699239 69.3615967,15.4524792 C70.3587693,17.3612466 70.8590649,19.4998889 70.814463,21.6631285 C70.814463,21.7785987 70.814463,21.9064409 70.814463,22.0507787 C70.7971835,22.7147813 70.2698608,23.2463464 69.619884,23.2549682 Z M55.2203653,15.6256845 C54.0455648,16.6631678 53.2891691,18.1090983 53.0975663,19.6836386 L65.8424317,19.6836386 C65.4888844,16.4063916 62.7141567,13.9673277 59.4901778,14.0998278 C57.9316037,14.0539071 56.4112452,14.5972212 55.2203653,15.6256845 L55.2203653,15.6256845 Z" id="Shape"></path>
                        <path d="M92.987377,12.2296592 C94.7950755,13.8512845 95.6989248,16.2933422 95.6989248,19.5558323 L95.6989248,31.7592492 C95.6989248,32.442333 95.1394772,32.996082 94.4493636,32.996082 L91.8294503,32.996082 C91.1393367,32.996082 90.5798892,32.442333 90.5798892,31.7592492 L90.5798892,30.2132082 C89.8832257,31.241481 88.8928091,32.0409577 87.7350548,32.5095944 C86.3233123,33.0748355 84.8089365,33.3457132 83.286617,33.3052902 C81.721689,33.3390552 80.1677021,33.0395785 78.7298838,32.4271389 C77.5128694,31.9063841 76.4680176,31.0578758 75.7142762,29.97821 C75.0028896,28.9311559 74.6309227,27.6943081 74.647984,26.4326226 C74.5892119,24.5126075 75.4510232,22.6781287 76.9721677,21.4852914 C78.5188469,20.240213 80.9568796,19.6176738 84.2862659,19.6176738 L90.2758293,19.6176738 L90.2758293,19.2713607 C90.2758293,17.6662265 89.7912771,16.4293937 88.8221731,15.5608623 C87.853069,14.6923308 86.4132967,14.2621878 84.5028566,14.2704334 C83.1988616,14.2715066 81.9030724,14.4746065 80.6625385,14.8723587 C79.9368423,15.1035037 79.2385706,15.4117606 78.5799366,15.7917377 C78.2864445,15.9707873 77.9312559,16.0218573 77.5984264,15.9328619 C77.2655968,15.8438664 76.9847036,15.6227143 76.8222205,15.3217412 L75.9017104,13.6272803 C75.5764597,13.0552652 75.759291,12.331389 76.3182307,11.9781699 C77.3869807,11.3482759 78.5355094,10.8616574 79.733698,10.5310755 C81.4948588,10.0360372 83.3176843,9.78899266 85.1484631,9.79683282 C88.5639304,9.79683282 91.1769017,10.608034 92.987377,12.2296592 Z M88.0349494,28.4733967 C89.071998,27.8810876 89.8642115,26.9450799 90.271664,25.8306972 L90.271664,23.167384 L84.6736299,23.167384 C81.5441733,23.167384 79.9808335,24.1843354 79.9836103,26.2182383 C79.9551809,27.1372473 80.3968497,28.0084864 81.1581977,28.5352384 C81.937091,29.112427 83.0242091,29.3968985 84.411222,29.3968985 C85.6813815,29.4199562 86.9339718,29.1007352 88.0349494,28.4733967 L88.0349494,28.4733967 Z" id="Shape"></path>
                        <path d="M114.755286,30.9025731 C114.973056,31.4679343 114.751636,32.1146644 114.240684,32.4056404 C113.836035,32.6299667 113.409078,32.8069223 112.967521,32.933313 C112.108118,33.187747 111.218878,33.31424 110.325898,33.3093747 C107.995577,33.3093747 106.195106,32.6708093 104.924484,31.394268 C103.653862,30.1177267 103.018551,28.2522174 103.018551,25.7977403 L103.018551,15.1043752 L100.670442,15.1043752 C100.038871,15.1043752 99.5268818,14.56745 99.5268818,13.9051193 L99.5268818,12.1542056 C99.5268818,11.4918749 100.038871,10.9549497 100.670442,10.9549497 L103.026175,10.9549497 L103.026175,7.0773556 C103.026175,6.41502486 103.538164,5.87809969 104.169734,5.87809969 L106.838041,5.87809969 C107.469611,5.87809969 107.9816,6.41502486 107.9816,7.0773556 L107.9816,10.9549497 L112.513909,10.9549497 C113.14548,10.9549497 113.657469,11.4918749 113.657469,12.1542056 L113.657469,13.9051193 C113.657469,14.56745 113.14548,15.1043752 112.513909,15.1043752 L107.9816,15.1043752 L107.9816,25.7057975 C107.9816,26.7877927 108.235725,27.6139468 108.743974,28.1842596 C109.321788,28.7865764 110.119202,29.0983493 110.931985,29.0397288 C111.544625,29.0477995 112.15338,28.9366548 112.727373,28.7119322 C113.312459,28.4837373 113.963941,28.789759 114.19113,29.3995056 L114.755286,30.9025731 Z" id="Path"></path>
                        <path d="M121.90573,9.79683282 L124.997526,9.79683282 C125.729333,9.79683282 126.322581,10.3647267 126.322581,11.0652593 L126.322581,32.040805 C126.322581,32.7413376 125.729333,33.3092316 124.997526,33.3092316 L121.90573,33.3092316 C121.173922,33.3092316 120.580616,32.7413376 120.580616,32.040805 L120.580616,11.0737155 C120.578322,10.7358451 120.716886,10.4110392 120.965637,10.171331 C121.214389,9.93162289 121.552767,9.79683282 121.90573,9.79683282 Z" id="Path"></path>
                        <path d="M153.017445,11.5757749 L144.597253,32.5360336 C144.410539,33.0072201 143.977047,33.3122005 143.49828,33.3092531 L139.758608,33.3092531 C139.281276,33.3104939 138.849746,33.0057978 138.663587,32.5360336 L130.251302,11.5757749 C130.088923,11.1820862 130.124488,10.7272413 130.345756,10.3678193 C130.567023,10.0083972 130.943777,9.79347803 131.346322,9.79662979 L134.113521,9.79662979 C134.595642,9.79375876 135.031641,10.102744 135.216448,10.5786733 L141.747038,27.2336501 L148.467379,10.5659983 C148.654753,10.0978895 149.086019,9.79504405 149.562399,9.79662979 L151.910566,9.79662979 C152.315205,9.78910803 152.695696,10.0022517 152.919818,10.3624094 C153.143939,10.7225671 153.180745,11.1800103 153.017445,11.5757749 Z" id="Path"></path>
                        <rect id="Rectangle" x="120.580645" y="0" width="5.74193549" height="5.87809969" rx="0.9"></rect>
                        <path d="M176.806349,23.2550484 L160.321477,23.2550484 C160.582307,24.8665125 161.451996,26.3089214 162.743348,27.2718019 C164.155738,28.2942073 165.857093,28.8156816 167.587092,28.7564335 C169.478092,28.8053804 171.328959,28.1944419 172.83448,27.0243633 C173.348198,26.6321347 174.072145,26.7171304 174.48539,27.2181902 L175.760908,28.7193177 C176.18772,29.2129969 176.161102,29.9617755 175.700361,30.4225203 C174.814318,31.2575478 173.78352,31.9162901 172.660913,32.3649134 C168.833447,33.794809 164.604247,33.5942168 160.922908,31.8081765 C159.108258,30.8647026 157.596673,29.4090803 156.567577,27.6140919 C155.530461,25.7656774 155.000564,23.6656666 155.033724,21.5353501 C155.002766,19.4223195 155.517926,17.3383339 156.527212,15.4937239 C157.498437,13.7285711 158.9346,12.2769831 160.672648,11.3037634 C162.503903,10.2848821 164.561646,9.76639411 166.646598,9.79851184 C168.694725,9.76354478 170.716327,10.2752841 172.511564,11.2831435 C174.21692,12.2535804 175.616888,13.699638 176.548017,15.4524841 C177.543963,17.3616538 178.042952,19.5002953 177.997103,21.6631933 C177.997103,21.7786647 177.997103,21.9065079 177.997103,22.0508472 C177.979892,22.7132832 177.454868,23.2442372 176.806349,23.2550484 L176.806349,23.2550484 Z M162.404287,15.6256912 C161.228083,16.6627596 160.47014,18.1086598 160.277076,19.6836845 L173.024193,19.6836845 C172.851009,18.1238819 172.117462,16.685228 170.965602,15.6463111 C168.466441,13.5984147 164.91287,13.5898559 162.404287,15.6256912 L162.404287,15.6256912 Z" id="Shape"></path>
                    </g>
                    <g id="t" transform="translate(0.011301, 47.898115)">
                        <path d="M9.78721865,7.54766103 L1.21530033,7.54766103 C0.544108491,7.54766103 0,6.99064956 0,6.30354108 L0,4.05168397 C0,3.3645755 0.544108491,2.80756402 1.21530033,2.80756402 L23.8482434,2.80756402 C24.5194353,2.80756402 25.0635438,3.3645755 25.0635438,4.05168397 L25.0635438,6.30354108 C25.0635438,6.99064956 24.5194353,7.54766103 23.8482434,7.54766103 L15.2601211,7.54766103 L15.2601211,31.7955589 C15.2601211,32.4826674 14.7160126,33.0396787 14.0448208,33.0396787 L11.002519,33.0396787 C10.3313271,33.0396787 9.78721865,32.4826674 9.78721865,31.7955589 L9.78721865,7.54766103 Z" id="Path"></path>
                        <path d="M78.5975233,12.2379932 C80.2584337,13.9272317 81.0888889,16.4555599 81.0888889,19.8229779 L81.0888889,31.7997059 C81.0888889,32.4868144 80.5447804,33.0438259 79.8735887,33.0438259 L77.0378879,33.0438259 C76.366696,33.0438259 75.8225875,32.4868144 75.8225875,31.7997059 L75.8225875,20.5155379 C75.8225875,18.5000636 75.3864297,16.9794726 74.5141142,15.9537648 C73.6417985,14.928057 72.3886889,14.4165855 70.7547851,14.4193502 C69.145421,14.3494267 67.5867752,15.0040349 66.489081,16.2108829 C65.408814,17.4080029 64.8686805,19.1152119 64.8686805,21.33251 L64.8686805,31.7955589 C64.8686805,32.4826674 64.3245721,33.0396787 63.6533802,33.0396787 L60.8176795,33.0396787 C60.1464876,33.0396787 59.6023791,32.4826674 59.6023791,31.7955589 L59.6023791,20.5155379 C59.6023791,18.5000636 59.164871,16.9794726 58.2898547,15.9537648 C57.4148385,14.928057 56.1630792,14.4165855 54.5345768,14.4193502 C52.7332316,14.4193502 51.3045785,15.009616 50.2486177,16.1901476 C49.1926567,17.3706792 48.6646762,19.0848 48.6646762,21.33251 L48.6646762,31.7955589 C48.6646762,32.4826674 48.1205677,33.0396787 47.4493758,33.0396787 L44.613675,33.0396787 C43.9424832,33.0396787 43.3983748,32.4826674 43.3983748,31.7955589 L43.3983748,11.2219619 C43.3983748,10.5348535 43.9424832,9.977842 44.613675,9.977842 L47.1941627,9.977842 C47.8653546,9.977842 48.4094631,10.5348535 48.4094631,11.2219619 L48.4094631,12.909818 C49.2608719,11.8674944 50.3465098,11.0521009 51.5732949,10.5335489 C52.9127873,9.96870625 54.3499092,9.6865966 55.7984891,9.70413561 C57.3498162,9.67471363 58.8873939,10.0065383 60.2951003,10.6745492 C61.5805854,11.3030145 62.6590106,12.3018021 63.3981671,13.5484662 C64.3492542,12.319705 65.5802751,11.3485576 66.9833031,10.7201669 C68.5133767,10.0272399 70.1715549,9.68066694 71.8445045,9.70413561 C74.6883071,9.70966503 76.9393134,10.5542842 78.5975233,12.2379932 Z" id="Path"></path>
                        <path d="M31.5654005,10.0359009 L34.4011013,10.0359009 C35.0722932,10.0359009 35.6164017,10.5929124 35.6164017,11.2800209 L35.6164017,31.8577648 C35.6164017,32.5448733 35.0722932,33.1018848 34.4011013,33.1018848 L31.5654005,33.1018848 C30.8942086,33.1018848 30.3501003,32.5448733 30.3501003,31.8577648 L30.3501003,11.2800209 C30.3501003,10.5929124 30.8942086,10.0359009 31.5654005,10.0359009 Z" id="Path"></path>
                        <rect id="Rectangle" x="30.3419982" y="0" width="5.27845443" height="5.40362765" rx="0.9"></rect>
                    </g>
                </g>
            </g>
            <g id="icon" transform="translate(22.000000, 25.000000)" fill="#1C1C1C" fill-rule="nonzero">
                <g id="Group">
                    <path d="M42.7079922,0 L2.29479972,0 C1.02741683,0 0,1.02735308 0,2.29465735 L0,21.5366371 C0,22.8039414 1.02741683,23.8312944 2.29479972,23.8312944 L10.5864139,23.8312944 L10.5864139,42.7053427 C10.5856683,43.3136652 10.8268161,43.8973277 11.2567286,44.3277404 C11.6866411,44.758153 12.270044,45 12.8784048,45 L32.1215784,45 C33.3889612,45 34.4163781,43.9726469 34.4163781,42.7053427 L34.4163781,23.8397204 L42.7079922,23.8397204 C43.316353,23.8397208 43.8997559,23.5978734 44.3296684,23.1674607 C44.7595809,22.7370481 45.0007286,22.1533856 44.9999883,21.5450631 L44.9999883,2.29465735 C45.0007286,1.68633479 44.7595809,1.1026723 44.3296684,0.672259642 C43.8997559,0.241846989 43.316353,0 42.7079922,0 Z M2.65994532,2.66258894 L21.1700189,2.66258894 L21.1700189,21.1715141 L2.65994532,21.1715141 L2.65994532,2.66258894 Z M31.7564327,42.3402197 L13.2463592,42.3402197 L13.2463592,23.8397204 L31.7564327,23.8397204 L31.7564327,42.3402197 Z M42.3400378,21.1715141 L23.8299642,21.1715141 L23.8299642,2.66258894 L42.3400378,2.66258894 L42.3400378,21.1715141 Z" id="Shape"></path>
                    <path d="M15.5053263,14.9643554 C16.0330919,15.4680668 16.8587391,15.4547481 17.3705303,14.9342674 C17.8823215,14.4137867 17.8954178,13.574121 17.400116,13.0373947 L13.121285,8.68591492 C12.5966214,8.15732662 11.7511589,8.15732662 11.2264953,8.68591492 L6.93635211,13.0373947 C6.57974474,13.3777489 6.43369693,13.888596 6.55527155,14.3703409 C6.67684624,14.8520857 7.04674737,15.2282673 7.52044944,15.3519061 C7.99415151,15.475545 8.49646996,15.3270175 8.83114179,14.9643554 L12.162578,11.5763559 L15.5053263,14.9643554 Z" id="Path"></path>
                    <path d="M29.509096,15.0223297 L32.8618323,11.6049039 L36.2145685,15.0223297 C36.7457085,15.530416 37.5766346,15.5169817 38.091698,14.9919804 C38.6067614,14.4669791 38.6199415,13.6200206 38.1214729,13.0786326 L33.8152844,8.68935819 C33.2872664,8.15617883 32.4363982,8.15617883 31.9083802,8.68935819 L27.6021917,13.0786326 C27.1037231,13.6200206 27.1169031,14.4669791 27.6319665,14.9919804 C28.1470299,15.5169817 28.9779561,15.530416 29.509096,15.0223297 L29.509096,15.0223297 Z" id="Path"></path>
                    <path d="M19.4354291,30.0055447 C18.9050595,29.5006043 18.0764868,29.5152198 17.5636396,30.0385618 C17.0507924,30.5619038 17.0389007,31.4049519 17.5367755,31.9430519 L21.8307409,36.3089401 C22.0826122,36.5660268 22.4247114,36.7105263 22.7814867,36.7105263 C23.1382619,36.7105263 23.4803611,36.5660268 23.7322325,36.3089401 L28.0261979,31.9430519 C28.3663736,31.5974654 28.4994978,31.0934869 28.3754239,30.6209602 C28.25135,30.1484335 27.8889277,29.7791467 27.4246781,29.6522066 C26.9604284,29.5252664 26.464882,29.6599581 26.1247063,30.0055447 L22.7814867,33.4098979 L19.4354291,30.0055447 Z" id="Path"></path>
                </g>
            </g>
        </g>
    </g>
</svg>