<?xml version="1.0" encoding="UTF-8"?>
<svg width="321px" height="111px" viewBox="0 0 321 111" version="1.1" xmlns="http://www.w3.org/2000/svg" xmlns:xlink="http://www.w3.org/1999/xlink">
    <title>logo-creative-tim-black</title>
    <g id="logo-creative-tim-black" stroke="none" stroke-width="1" fill="none" fill-rule="evenodd">
        <g id="logo-creative-tim-white-copy" transform="translate(28.000000, 16.000000)" fill-rule="nonzero">
            <g id="Group" transform="translate(99.000000, 0.000000)" fill="#000000">
                <g id="c">
                    <path d="M7.66508472,31.2971763 C5.33176527,30.0056408 3.3861421,28.0691401 2.04241357,25.7008679 C-0.680804523,20.7026073 -0.680804523,14.5830978 2.04241357,9.58483732 C3.39061775,7.21919916 5.33502431,5.28246396 7.66508472,3.98434953 C10.1342802,2.61183719 12.8984593,1.91571101 15.6974721,1.96148678 C17.9495748,1.93240367 20.1842164,2.37589545 22.267965,3.26548095 C23.8125551,3.93785924 25.2245077,4.90137027 26.4327579,6.10751953 C26.6685816,6.34822378 26.7990999,6.6791282 26.793785,7.02283516 C26.7884703,7.3665421 26.6477883,7.69290496 26.4046445,7.92558834 L24.6214545,9.6684267 C24.1576444,10.122245 23.4346091,10.122245 22.9707989,9.6684267 C21.0526013,7.85212047 18.5394296,6.86818945 15.9464761,6.91833643 C14.0639608,6.88541701 12.2050175,7.35753127 10.5487118,8.28920209 C8.98847698,9.17232073 7.69730698,10.4928155 6.82168406,12.1008774 C5.04094528,15.5557529 5.04094528,19.709055 6.82168406,23.1639305 C7.69730698,24.7719924 8.98847698,26.0924871 10.5487118,26.9756057 C12.2050175,27.9072766 14.0639608,28.3793909 15.9464761,28.3464715 C18.5423407,28.3947199 21.056377,27.400907 22.9667826,25.5713043 C23.4316824,25.1122225 24.1605709,25.1122225 24.6254707,25.5713043 L26.4126768,27.343399 C26.652739,27.5764277 26.7910345,27.9013056 26.7958091,28.2429062 C26.8001317,28.5845066 26.6705394,28.9132475 26.436774,29.1531088 C25.2223269,30.3641759 23.801827,31.3293606 22.247884,31.9993269 C20.1557744,32.8895919 17.9134068,33.334412 15.6532939,33.3075006 C12.8703145,33.3486046 10.1224932,32.6570839 7.66508472,31.2971763 Z" id="Path"></path>
                    <path d="M45.9355295,11.063827 L45.9355295,13.5467039 C45.9355295,14.2404248 45.3757104,14.8027968 44.685253,14.8027968 L44.685253,14.8027968 C42.5710534,14.8027968 40.9208109,15.4210736 39.7345254,16.6576272 C38.54824,17.8941809 37.9550972,19.676437 37.9550972,22.0043959 L37.9550972,32.0531386 C37.9550972,32.7468597 37.395371,33.3092316 36.7049136,33.3092316 L33.7878182,33.3092316 C33.0973608,33.3092316 32.5376344,32.7468597 32.5376344,32.0531386 L32.5376344,11.2773628 C32.5376344,10.5836419 33.0973608,10.0212699 33.7878182,10.0212699 L36.4382077,10.0212699 C37.1286651,10.0212699 37.6883914,10.5836419 37.6883914,11.2773628 L37.6883914,13.4169077 C39.0774844,11.2620106 41.3833788,10.0561614 44.6060747,9.79936021 C44.9525899,9.77725298 45.292648,9.90092936 45.5447915,10.1407639 C45.7969348,10.3805984 45.9384495,10.7149859 45.9355295,11.063827 L45.9355295,11.063827 Z" id="Path"></path>
                    <path d="M69.619884,23.2549682 L53.1379238,23.2549682 C53.4011737,24.8654728 54.270178,26.3069857 55.5593674,27.2716831 C56.9713749,28.2943555 58.6725236,28.815853 60.4022548,28.7563004 C62.2928749,28.8049163 64.1433104,28.1940182 65.6487163,27.0242469 C66.1616167,26.6346572 66.8825203,26.7195173 67.295298,27.2180719 L68.5746275,28.7191849 C69.0002893,29.2139367 68.9718999,29.9627535 68.5100556,30.422371 C67.6254497,31.259103 66.5945006,31.9180524 65.4711437,32.3647454 C61.6457656,33.7948731 57.4184541,33.594268 53.7392489,31.808014 C51.9241286,30.8656985 50.4125252,29.4098162 49.3846859,27.6139697 C48.3458819,25.7663518 47.8159437,23.6658255 47.851105,21.5352865 C47.820152,19.4222762 48.3352213,17.3383108 49.3443285,15.4937185 C50.3127222,13.7279248 51.7475664,12.2760136 53.4849973,11.3037984 C55.3159282,10.2849269 57.3733078,9.76644391 59.4578918,9.79856133 C61.5069987,9.76306556 63.5296761,10.2748106 65.3258571,11.2831787 C67.0313201,12.2530571 68.4311745,13.699239 69.3615967,15.4524792 C70.3587693,17.3612466 70.8590649,19.4998889 70.814463,21.6631285 C70.814463,21.7785987 70.814463,21.9064409 70.814463,22.0507787 C70.7971835,22.7147813 70.2698608,23.2463464 69.619884,23.2549682 Z M55.2203653,15.6256845 C54.0455648,16.6631678 53.2891691,18.1090983 53.0975663,19.6836386 L65.8424317,19.6836386 C65.4888844,16.4063916 62.7141567,13.9673277 59.4901778,14.0998278 C57.9316037,14.0539071 56.4112452,14.5972212 55.2203653,15.6256845 L55.2203653,15.6256845 Z" id="Shape"></path>
                    <path d="M92.987377,12.2296592 C94.7950755,13.8512845 95.6989248,16.2933422 95.6989248,19.5558323 L95.6989248,31.7592492 C95.6989248,32.442333 95.1394772,32.996082 94.4493636,32.996082 L91.8294503,32.996082 C91.1393367,32.996082 90.5798892,32.442333 90.5798892,31.7592492 L90.5798892,30.2132082 C89.8832257,31.241481 88.8928091,32.0409577 87.7350548,32.5095944 C86.3233123,33.0748355 84.8089365,33.3457132 83.286617,33.3052902 C81.721689,33.3390552 80.1677021,33.0395785 78.7298838,32.4271389 C77.5128694,31.9063841 76.4680176,31.0578758 75.7142762,29.97821 C75.0028896,28.9311559 74.6309227,27.6943081 74.647984,26.4326226 C74.5892119,24.5126075 75.4510232,22.6781287 76.9721677,21.4852914 C78.5188469,20.240213 80.9568796,19.6176738 84.2862659,19.6176738 L90.2758293,19.6176738 L90.2758293,19.2713607 C90.2758293,17.6662265 89.7912771,16.4293937 88.8221731,15.5608623 C87.853069,14.6923308 86.4132967,14.2621878 84.5028566,14.2704334 C83.1988616,14.2715066 81.9030724,14.4746065 80.6625385,14.8723587 C79.9368423,15.1035037 79.2385706,15.4117606 78.5799366,15.7917377 C78.2864445,15.9707873 77.9312559,16.0218573 77.5984264,15.9328619 C77.2655968,15.8438664 76.9847036,15.6227143 76.8222205,15.3217412 L75.9017104,13.6272803 C75.5764597,13.0552652 75.759291,12.331389 76.3182307,11.9781699 C77.3869807,11.3482759 78.5355094,10.8616574 79.733698,10.5310755 C81.4948588,10.0360372 83.3176843,9.78899266 85.1484631,9.79683282 C88.5639304,9.79683282 91.1769017,10.608034 92.987377,12.2296592 Z M88.0349494,28.4733967 C89.071998,27.8810876 89.8642115,26.9450799 90.271664,25.8306972 L90.271664,23.167384 L84.6736299,23.167384 C81.5441733,23.167384 79.9808335,24.1843354 79.9836103,26.2182383 C79.9551809,27.1372473 80.3968497,28.0084864 81.1581977,28.5352384 C81.937091,29.112427 83.0242091,29.3968985 84.411222,29.3968985 C85.6813815,29.4199562 86.9339718,29.1007352 88.0349494,28.4733967 L88.0349494,28.4733967 Z" id="Shape"></path>
                    <path d="M114.755286,30.9025731 C114.973056,31.4679343 114.751636,32.1146644 114.240684,32.4056404 C113.836035,32.6299667 113.409078,32.8069223 112.967521,32.933313 C112.108118,33.187747 111.218878,33.31424 110.325898,33.3093747 C107.995577,33.3093747 106.195106,32.6708093 104.924484,31.394268 C103.653862,30.1177267 103.018551,28.2522174 103.018551,25.7977403 L103.018551,15.1043752 L100.670442,15.1043752 C100.038871,15.1043752 99.5268818,14.56745 99.5268818,13.9051193 L99.5268818,12.1542056 C99.5268818,11.4918749 100.038871,10.9549497 100.670442,10.9549497 L103.026175,10.9549497 L103.026175,7.0773556 C103.026175,6.41502486 103.538164,5.87809969 104.169734,5.87809969 L106.838041,5.87809969 C107.469611,5.87809969 107.9816,6.41502486 107.9816,7.0773556 L107.9816,10.9549497 L112.513909,10.9549497 C113.14548,10.9549497 113.657469,11.4918749 113.657469,12.1542056 L113.657469,13.9051193 C113.657469,14.56745 113.14548,15.1043752 112.513909,15.1043752 L107.9816,15.1043752 L107.9816,25.7057975 C107.9816,26.7877927 108.235725,27.6139468 108.743974,28.1842596 C109.321788,28.7865764 110.119202,29.0983493 110.931985,29.0397288 C111.544625,29.0477995 112.15338,28.9366548 112.727373,28.7119322 C113.312459,28.4837373 113.963941,28.789759 114.19113,29.3995056 L114.755286,30.9025731 Z" id="Path"></path>
                    <path d="M121.90573,9.79683282 L124.997526,9.79683282 C125.729333,9.79683282 126.322581,10.3647267 126.322581,11.0652593 L126.322581,32.040805 C126.322581,32.7413376 125.729333,33.3092316 124.997526,33.3092316 L121.90573,33.3092316 C121.173922,33.3092316 120.580616,32.7413376 120.580616,32.040805 L120.580616,11.0737155 C120.578322,10.7358451 120.716886,10.4110392 120.965637,10.171331 C121.214389,9.93162289 121.552767,9.79683282 121.90573,9.79683282 Z" id="Path"></path>
                    <path d="M153.017445,11.5757749 L144.597253,32.5360336 C144.410539,33.0072201 143.977047,33.3122005 143.49828,33.3092531 L139.758608,33.3092531 C139.281276,33.3104939 138.849746,33.0057978 138.663587,32.5360336 L130.251302,11.5757749 C130.088923,11.1820862 130.124488,10.7272413 130.345756,10.3678193 C130.567023,10.0083972 130.943777,9.79347803 131.346322,9.79662979 L134.113521,9.79662979 C134.595642,9.79375876 135.031641,10.102744 135.216448,10.5786733 L141.747038,27.2336501 L148.467379,10.5659983 C148.654753,10.0978895 149.086019,9.79504405 149.562399,9.79662979 L151.910566,9.79662979 C152.315205,9.78910803 152.695696,10.0022517 152.919818,10.3624094 C153.143939,10.7225671 153.180745,11.1800103 153.017445,11.5757749 Z" id="Path"></path>
                    <rect id="Rectangle" x="120.580645" y="0" width="5.74193549" height="5.87809969" rx="0.9"></rect>
                    <path d="M176.806349,23.2550484 L160.321477,23.2550484 C160.582307,24.8665125 161.451996,26.3089214 162.743348,27.2718019 C164.155738,28.2942073 165.857093,28.8156816 167.587092,28.7564335 C169.478092,28.8053804 171.328959,28.1944419 172.83448,27.0243633 C173.348198,26.6321347 174.072145,26.7171304 174.48539,27.2181902 L175.760908,28.7193177 C176.18772,29.2129969 176.161102,29.9617755 175.700361,30.4225203 C174.814318,31.2575478 173.78352,31.9162901 172.660913,32.3649134 C168.833447,33.794809 164.604247,33.5942168 160.922908,31.8081765 C159.108258,30.8647026 157.596673,29.4090803 156.567577,27.6140919 C155.530461,25.7656774 155.000564,23.6656666 155.033724,21.5353501 C155.002766,19.4223195 155.517926,17.3383339 156.527212,15.4937239 C157.498437,13.7285711 158.9346,12.2769831 160.672648,11.3037634 C162.503903,10.2848821 164.561646,9.76639411 166.646598,9.79851184 C168.694725,9.76354478 170.716327,10.2752841 172.511564,11.2831435 C174.21692,12.2535804 175.616888,13.699638 176.548017,15.4524841 C177.543963,17.3616538 178.042952,19.5002953 177.997103,21.6631933 C177.997103,21.7786647 177.997103,21.9065079 177.997103,22.0508472 C177.979892,22.7132832 177.454868,23.2442372 176.806349,23.2550484 L176.806349,23.2550484 Z M162.404287,15.6256912 C161.228083,16.6627596 160.47014,18.1086598 160.277076,19.6836845 L173.024193,19.6836845 C172.851009,18.1238819 172.117462,16.685228 170.965602,15.6463111 C168.466441,13.5984147 164.91287,13.5898559 162.404287,15.6256912 L162.404287,15.6256912 Z" id="Shape"></path>
                </g>
                <g id="t" transform="translate(0.011301, 47.898115)">
                    <path d="M9.78721865,7.54766103 L1.21530033,7.54766103 C0.544108491,7.54766103 0,6.99064956 0,6.30354108 L0,4.05168397 C0,3.3645755 0.544108491,2.80756402 1.21530033,2.80756402 L23.8482434,2.80756402 C24.5194353,2.80756402 25.0635438,3.3645755 25.0635438,4.05168397 L25.0635438,6.30354108 C25.0635438,6.99064956 24.5194353,7.54766103 23.8482434,7.54766103 L15.2601211,7.54766103 L15.2601211,31.7955589 C15.2601211,32.4826674 14.7160126,33.0396787 14.0448208,33.0396787 L11.002519,33.0396787 C10.3313271,33.0396787 9.78721865,32.4826674 9.78721865,31.7955589 L9.78721865,7.54766103 Z" id="Path"></path>
                    <path d="M78.5975233,12.2379932 C80.2584337,13.9272317 81.0888889,16.4555599 81.0888889,19.8229779 L81.0888889,31.7997059 C81.0888889,32.4868144 80.5447804,33.0438259 79.8735887,33.0438259 L77.0378879,33.0438259 C76.366696,33.0438259 75.8225875,32.4868144 75.8225875,31.7997059 L75.8225875,20.5155379 C75.8225875,18.5000636 75.3864297,16.9794726 74.5141142,15.9537648 C73.6417985,14.928057 72.3886889,14.4165855 70.7547851,14.4193502 C69.145421,14.3494267 67.5867752,15.0040349 66.489081,16.2108829 C65.408814,17.4080029 64.8686805,19.1152119 64.8686805,21.33251 L64.8686805,31.7955589 C64.8686805,32.4826674 64.3245721,33.0396787 63.6533802,33.0396787 L60.8176795,33.0396787 C60.1464876,33.0396787 59.6023791,32.4826674 59.6023791,31.7955589 L59.6023791,20.5155379 C59.6023791,18.5000636 59.164871,16.9794726 58.2898547,15.9537648 C57.4148385,14.928057 56.1630792,14.4165855 54.5345768,14.4193502 C52.7332316,14.4193502 51.3045785,15.009616 50.2486177,16.1901476 C49.1926567,17.3706792 48.6646762,19.0848 48.6646762,21.33251 L48.6646762,31.7955589 C48.6646762,32.4826674 48.1205677,33.0396787 47.4493758,33.0396787 L44.613675,33.0396787 C43.9424832,33.0396787 43.3983748,32.4826674 43.3983748,31.7955589 L43.3983748,11.2219619 C43.3983748,10.5348535 43.9424832,9.977842 44.613675,9.977842 L47.1941627,9.977842 C47.8653546,9.977842 48.4094631,10.5348535 48.4094631,11.2219619 L48.4094631,12.909818 C49.2608719,11.8674944 50.3465098,11.0521009 51.5732949,10.5335489 C52.9127873,9.96870625 54.3499092,9.6865966 55.7984891,9.70413561 C57.3498162,9.67471363 58.8873939,10.0065383 60.2951003,10.6745492 C61.5805854,11.3030145 62.6590106,12.3018021 63.3981671,13.5484662 C64.3492542,12.319705 65.5802751,11.3485576 66.9833031,10.7201669 C68.5133767,10.0272399 70.1715549,9.68066694 71.8445045,9.70413561 C74.6883071,9.70966503 76.9393134,10.5542842 78.5975233,12.2379932 Z" id="Path"></path>
                    <path d="M31.5654005,10.0359009 L34.4011013,10.0359009 C35.0722932,10.0359009 35.6164017,10.5929124 35.6164017,11.2800209 L35.6164017,31.8577648 C35.6164017,32.5448733 35.0722932,33.1018848 34.4011013,33.1018848 L31.5654005,33.1018848 C30.8942086,33.1018848 30.3501003,32.5448733 30.3501003,31.8577648 L30.3501003,11.2800209 C30.3501003,10.5929124 30.8942086,10.0359009 31.5654005,10.0359009 Z" id="Path"></path>
                    <rect id="Rectangle" x="30.3419982" y="0" width="5.27845443" height="5.40362765" rx="0.9"></rect>
                </g>
            </g>
            <g id="Group" transform="translate(0.000000, 3.000000)" fill="#1C1C1C">
                <path d="M72.1290696,0 L3.87566261,0 C1.73519325,0 0,1.73508521 0,3.8754213 L0,36.3729871 C0,38.5133232 1.73519325,40.2484084 3.87566261,40.2484084 L17.8792807,40.2484084 L17.8792807,72.1245787 C17.8780215,73.1519679 18.2852934,74.137709 19.0113681,74.8646282 C19.7374427,75.5915473 20.7227456,76 21.7501996,76 L54.2497889,76 C56.3902582,76 58.1254515,74.2649148 58.1254515,72.1245787 L58.1254515,40.2626389 L72.1290696,40.2626389 C73.1565236,40.2626396 74.1418265,39.8541862 74.8679011,39.127267 C75.5939757,38.4003479 76.0012475,37.4146068 76,36.3872176 L76,3.8754213 C76.0012475,2.84803209 75.5939757,1.862291 74.8679011,1.13537184 C74.1418265,0.408452692 73.1565236,0 72.1290696,0 Z M4.4923531,4.49681688 L35.7538177,4.49681688 L35.7538177,35.756335 L4.4923531,35.756335 L4.4923531,4.49681688 Z M53.6330983,71.5079266 L22.3716338,71.5079266 L22.3716338,40.2626389 L53.6330983,40.2626389 L53.6330983,71.5079266 Z M71.5076353,35.756335 L40.2461708,35.756335 L40.2461708,4.49681688 L71.5076353,4.49681688 L71.5076353,35.756335 Z" id="Shape"></path>
                <path d="M26.1867791,25.2731335 C27.0781167,26.1238461 28.4725435,26.1013523 29.3369022,25.2223182 C30.2012608,24.3432842 30.223379,22.9251822 29.3868691,22.0187111 L22.1603973,14.6695452 C21.2742987,13.7768183 19.8464061,13.7768183 18.9603074,14.6695452 L11.7147306,22.0187111 C11.1124603,22.5935314 10.8658017,23.4562954 11.0711278,24.269909 C11.2764539,25.0835226 11.901176,25.7188515 12.7012063,25.9276637 C13.5012367,26.136476 14.3495969,25.8856295 14.9148206,25.2731335 L20.5412473,19.5511789 L26.1867791,25.2731335 Z" id="Path"></path>
                <path d="M49.8375955,25.3710457 L55.4999965,19.5993933 L61.1623961,25.3710457 C62.0594326,26.2291471 63.4627749,26.2064579 64.3326599,25.3197891 C65.202545,24.4331202 65.2248046,23.0027014 64.3829463,22.0883572 L57.1102709,14.6753605 C56.2185068,13.7748798 54.7814848,13.7748798 53.8897207,14.6753605 L46.6170453,22.0883572 C45.775187,23.0027014 45.7974466,24.4331202 46.6673317,25.3197891 C47.5372167,26.2064579 48.940559,26.2291471 49.8375955,25.3710457 L49.8375955,25.3710457 Z" id="Path"></path>
                <path d="M32.8242875,50.676031 C31.9285521,49.8232429 30.5291846,49.8479268 29.6630425,50.7317932 C28.7969003,51.6156597 28.7768164,53.0394743 29.6176719,53.9482655 L36.8697039,61.3217655 C37.2950868,61.7559563 37.8728544,62 38.4754083,62 C39.0779621,62 39.6557298,61.7559563 40.0811127,61.3217655 L47.3331447,53.9482655 C47.9076639,53.3646082 48.1324959,52.5134445 47.9229488,51.7153994 C47.7134017,50.9173544 47.1013106,50.29367 46.3172444,50.0792822 C45.5331782,49.8648944 44.6962551,50.0923737 44.121736,50.676031 L38.4754083,56.4256054 L32.8242875,50.676031 Z" id="Path"></path>
            </g>
        </g>
    </g>
</svg>