<?xml version="1.0" encoding="UTF-8"?>
<svg width="868px" height="197px" viewBox="0 0 868 197" version="1.1" xmlns="http://www.w3.org/2000/svg" xmlns:xlink="http://www.w3.org/1999/xlink">
    <title>logo-multiversx</title>
    <g id="logo-multiversx" stroke="none" stroke-width="1" fill="none" fill-rule="evenodd">
        <g id="multiversx-logo" transform="translate(15.000000, 24.000000)" fill-rule="nonzero">
            <polygon id="Path" fill="#000000" points="56.9218423 107.063008 89.0643534 30.0404402 113 30.0404402 113 130.463184 97.1797964 130.463184 97.1797964 45.4449179 61.7130785 131 50.3628859 131 15.2073939 45.9813762 15.2073939 130.50434 0 130.50434 0 30 25.0005641 30"></polygon>
            <path d="M198.913628,114.828832 C196.201941,120.290354 192.029153,124.886243 186.864459,128.095333 C181.701549,131.304424 175.750109,133.003564 169.67914,133 C147.892873,133 133,116.422668 133,93.6281314 L133,43 L149.266556,43 L149.266556,90.5894904 C149.266556,107.155929 158.650422,118.028999 173.543295,118.028999 C188.948177,118.028999 198.872596,106.802536 198.872596,90.5894904 L198.872596,43 L215,43 L215,131.042057 L198.913628,131.042057 L198.913628,114.828832 Z" id="Path" fill="#000000"></path>
            <path d="M333,131 L312.155206,131 C291.672713,131 281.341788,121.220133 281.341788,101.65933 L281.341788,57.7338009 L262,57.7338009 L262,43.159092 L281.341788,43.159092 L281.341788,21 L297.5556,21 L297.5556,43.159092 L333,43.159092 L333,57.7338009 L297.5556,57.7338009 L297.5556,97.9226087 C297.5556,110.724583 301.652099,116.052403 315.717223,116.052403 L332.989239,116.052403 L333,131 Z" id="Path" fill="#000000"></path>
            <polygon id="Path" fill="#000000" points="426.295934 133 413.378294 133 372 43 390.109375 43 420.290474 111.168135 450.310617 43 467 43"></polygon>
            <path d="M556,88.9166751 L483.291435,88.9166751 C484.181969,105.254478 495.855093,118.091831 513.01747,118.091831 C530.520032,118.091831 537.594437,108.674891 539.017511,105.837856 L554.91711,105.837856 C553.504723,113.472824 542.353452,133 512.997879,133 C485.945227,133 467,112.748936 467,86.9952607 C467,60.5370843 485.925635,41.0000628 511.403822,41.0000628 C537.072584,40.9599297 556,60.1447266 556,88.9166751 Z M484.352952,75.4159068 L538.135882,75.4159068 C534.057234,62.0963771 524.688813,54.8126817 511.423414,54.8126817 C497.26748,54.8126817 487.719172,62.6294215 484.352952,75.4159068 Z" id="Shape" fill="#000000"></path>
            <path d="M588.111787,131 L572,131 L572,42.7187306 L588.111787,42.7187306 L588.111787,58.9760727 C590.589426,52.5379219 598.01878,42 618.554668,42 L628,42 L628,58.2573422 L618.20352,58.2573422 C595.722953,58.2573422 588.122481,65.4142236 588.122481,81.1348444 L588.111787,131 Z" id="Path" fill="#000000"></path>
            <path d="M663.464368,91.9099273 C646.605457,89.8911752 634.71451,81.8771951 634.71451,65.6672206 C634.71451,50.1638896 649.26993,40 670.742972,40 C700.388136,40 709.948786,55.3316666 712.802685,64.2239547 L695.593514,64.2239547 C693.642069,61.9025593 687.067559,53.8884007 670.742972,53.8884007 C657.433117,53.8884007 650.637013,58.692863 650.637013,65.1120771 C650.637013,71.3498123 655.081376,75.2659737 665.54448,76.5175893 C672.471037,77.4058902 676.724186,77.7590336 684.363771,78.6573274 C705.121998,81.3220516 714,90.234504 714,106.454293 C714,121.240452 700.507867,133 675.659112,133 C644.786253,133 633.949658,113.933116 632,105.919492 L649.219893,105.919492 C650.104476,108.765696 657.200802,118.747571 675.659112,118.747571 C690.566578,118.747571 697.845182,113.39778 697.845182,106.454293 C697.845182,99.5100927 694.115634,95.351781 682.233622,93.979001 L663.464368,91.9099273 Z" id="Path" fill="#000000"></path>
            <path d="M345,0 L362,0 L362,25.4025196 L345,25.4025196 L345,0 Z M345.35503,42.2536996 L361.635959,42.2536996 L361.635959,130 L345.35503,130 L345.35503,42.2536996 Z" id="Shape" fill="#000000"></path>
            <polygon id="Path" fill="#000000" points="236 16 252 16 252 131 236 131"></polygon>
            <path d="M778.739039,53.4595169 L817.980325,32.5788181 L811.389134,20 L775.438972,34.434797 C774.516027,34.8084182 773.483973,34.8084182 772.561028,34.434797 L736.610866,20 L730,32.6191228 L769.241285,53.5 L730,74.3806989 L736.610866,87 L772.561028,72.4540975 C773.483973,72.0804764 774.516027,72.0804764 775.438972,72.4540975 L811.389134,86.9293776 L818,74.3100764 L778.739039,53.4595169 Z" id="Path" fill="#23F7DD"></path>
        </g>
    </g>
</svg>