<?xml version="1.0" encoding="UTF-8"?>
<svg width="168px" height="42px" viewBox="0 0 168 42" version="1.1" xmlns="http://www.w3.org/2000/svg" xmlns:xlink="http://www.w3.org/1999/xlink">
    <title>logo-elrond</title>
    <g id="logo-elrond" stroke="none" stroke-width="1" fill="none" fill-rule="evenodd">
        <g id="elrond_logo_01" fill="#0F172A" fill-rule="nonzero">
            <path d="M25.2767303,24.7267842 C25.1575851,21.9269222 24.2062446,19.7677088 22.4219283,18.2494027 C20.637612,16.7310967 18.2786412,15.9719436 15.3444958,15.9719436 C12.6879222,15.9719436 10.388264,16.7409289 8.44552099,18.2788995 C6.50277801,19.8168701 5.33291792,21.9465867 4.93646101,24.667532 L25.2767303,24.667532 L25.2767303,24.7267842 Z M28.1315323,36.7943162 C26.7041313,38.4898614 24.8404716,39.7817672 22.5408133,40.6687396 C20.241155,41.5562292 17.8819242,41.9999741 15.4633809,41.9999741 C10.8640643,41.9999741 7.13700504,40.609746 4.28220302,37.8295485 C1.42740101,35.0493511 0,31.3519083 0,26.7379965 C0,22.3209884 1.42740101,18.6931476 4.28220302,15.8536979 C7.13700504,13.0142481 10.7847209,11.5945233 15.2256108,11.5945233 C19.983354,11.5945233 23.7601005,13.0634094 26.55559,16.0014403 C29.3508194,18.9394713 30.4707322,23.1888137 29.9158486,28.7492087 L4.93646101,28.7492087 C5.21403287,31.3914961 6.3440912,33.5111215 8.32663595,35.1083445 C10.3089206,36.7055674 12.727724,37.504308 15.5822659,37.504308 C17.3270406,37.504308 19.0814405,37.1788089 20.845986,36.5280692 C22.6102713,35.8775887 23.9682143,34.9802664 24.919815,33.8366209 L28.1911049,36.7943162 L28.1315323,36.7943162 Z M34.96607,41.4674801 L34.96607,0.0592263574 L39.8429581,0.0592263574 L39.8429581,41.4674801 L34.96607,41.4674801 Z M49.3301152,12.185933 L49.6870306,16.5633533 C51.4315451,13.3295787 54.4447736,11.7126914 58.7269767,11.7126914 C61.3042068,11.6337746 63.5840945,12.3634309 65.5666392,13.9014015 L63.3660949,18.0423304 C61.8195489,16.9776014 60.1148362,16.4451076 58.2511765,16.4451076 C55.832633,16.4844366 53.7905159,17.3028418 52.1253445,18.9000647 C50.4601734,20.4972875 49.6274579,22.5972487 49.6274579,25.1999482 L49.6274579,41.4674026 L44.7505695,41.4674026 L44.7505695,12.2451852 L49.2705425,12.2451852 L49.3301152,12.185933 Z M104.706511,12.185933 L109.167171,12.185933 L109.405201,16.8593557 C111.903088,13.4677476 115.253462,11.7719436 119.456061,11.7719436 C123.262464,11.7719436 126.365181,12.984415 128.764214,15.4098754 C131.162726,17.835077 132.362243,21.1381948 132.362243,25.318194 L132.362243,41.4674026 L127.485354,41.4674026 L127.485354,25.3774462 C127.485354,22.5379965 126.692441,20.3099573 125.106353,18.69307 C123.520265,17.0761827 121.339492,16.2676096 118.564293,16.2676096 C115.90772,16.3071974 113.736832,17.2340161 112.05163,19.0480659 C110.366688,20.8621157 109.524087,23.1098193 109.524087,25.7914356 L109.524087,41.4674026 L104.706511,41.4674026 L104.706511,12.2451852 L104.706511,12.185933 Z M168,0 L168,41.4085128 L163.420454,41.4085128 L163.182684,36.0843503 C162.032855,38.0166459 160.476423,39.4857907 158.51391,40.4915261 C156.551396,41.4970028 154.43982,42 152.179964,42 C147.858219,42 144.299472,40.6491009 141.504243,37.9478202 C138.709013,35.2462805 137.311269,31.5493553 137.311269,26.8562681 C137.311269,22.0845228 138.699128,18.3676743 141.474587,15.7057225 C144.250045,13.0437708 147.798647,11.7127949 152.120391,11.7127949 C154.340966,11.7127949 156.481938,12.2155332 158.543566,13.2212687 C160.605454,14.2267455 162.131969,15.6759671 163.123112,17.5689336 L163.123112,0.0592522316 L167.940688,0.0592522316 L168,0 Z M152.536619,16.2084609 C149.562932,16.2084609 147.094701,17.1451119 145.132188,19.0184139 C143.169414,20.8917159 142.188157,23.4845832 142.188157,26.7972746 C142.188157,30.0703782 143.169414,32.6536721 145.132188,34.5463798 C147.094701,36.4393464 149.562932,37.3858294 152.536619,37.3858294 C155.510566,37.3858294 157.988422,36.3997586 159.970967,34.4281341 C161.953512,32.4562508 162.944654,29.8928803 162.944654,26.7380223 C162.944654,23.6620812 161.943626,21.1380396 159.941311,19.1661564 C157.938995,17.1945319 155.450994,16.2084609 152.477046,16.2084609 L152.536619,16.2084609 Z" id="Combined-Shape"></path>
            <path d="M94.0008146,18.0002577 C93.8895292,17.8837838 93.831505,17.7315883 93.831505,17.5854547 C93.831505,17.4336922 93.8895292,17.2875585 94.0008146,17.1706516 C94.2285812,16.9431161 94.596645,16.9431161 94.8248447,17.1706516 C94.9413263,17.2875585 95,17.4336922 95,17.5854547 C95,17.7315883 94.9413263,17.8837838 94.8248447,18.0002577 C94.7135597,18.1115358 94.5617873,18.1697728 94.4156441,18.1697728 C94.263872,18.1697728 94.1116666,18.1115358 94.0008146,18.0002577 M92.3471244,19.6538411 C92.2360557,19.5369342 92.1778151,19.3849552 92.1778151,19.239038 C92.1778151,19.0872756 92.2360557,18.9411419 92.3471244,18.824235 C92.5748914,18.596483 92.9492339,18.596483 93.1767841,18.824235 C93.2880695,18.9411419 93.3463101,19.0872756 93.3463101,19.239038 C93.3463101,19.3849552 93.2880695,19.5369342 93.1767841,19.6538411 C93.0598698,19.7651192 92.9137267,19.8231396 92.7619543,19.8231396 C92.6101822,19.8231396 92.464039,19.7651192 92.3471244,19.6538411 M90.6936512,21.3015791 C90.5823659,21.1903011 90.5241252,21.0385386 90.5241252,20.8924049 C90.5241252,20.7408589 90.5823659,20.5888799 90.6936512,20.4776019 C90.9212012,20.2500664 91.295544,20.2500664 91.5233106,20.4776019 C91.6343793,20.5888799 91.6928366,20.7408589 91.6928366,20.8924049 C91.6928366,21.0385386 91.6343793,21.1903011 91.5233106,21.3015791 C91.4063963,21.418486 91.2602532,21.476723 91.1084811,21.476723 C90.956492,21.476723 90.8105655,21.418486 90.6936512,21.3015791 M89.0399614,22.9551625 C88.9293254,22.8438844 88.8706517,22.6921219 88.8706517,22.5403594 C88.8706517,22.3942258 88.9293254,22.2424633 89.0399614,22.1311852 C89.267728,21.9036497 89.6418541,21.9036497 89.8696208,22.1311852 C89.9809061,22.2424633 90.0391468,22.3942258 90.0391468,22.5403594 C90.0391468,22.6921219 89.9809061,22.8438844 89.8696208,22.9551625 C89.7527065,23.0720694 89.6065633,23.124461 89.4547909,23.124461 C89.3086481,23.124461 89.1568757,23.0720694 89.0399614,22.9551625 M87.3921171,24.6085293 C87.2756355,24.4974678 87.2169619,24.3454888 87.2169619,24.1937263 C87.2169619,24.0475927 87.2756355,23.8953972 87.3921171,23.7847686 C87.6146875,23.5507383 87.9881643,23.5507383 88.2159309,23.7847686 C88.3328452,23.8953972 88.3854569,24.0475927 88.3854569,24.1937263 C88.3854569,24.3454888 88.3328452,24.4974678 88.2159309,24.6085293 C88.1052953,24.7256528 87.9528735,24.7780444 87.801101,24.7780444 C87.6549579,24.7780444 87.5031858,24.7256528 87.3921171,24.6085293 M85.563272,25.8473097 C85.563272,25.701176 85.622162,25.5489806 85.7384273,25.4325066 C85.9668433,25.2043216 86.3346908,25.2043216 86.562241,25.4325066 C86.679372,25.5489806 86.7319834,25.701176 86.7319834,25.8473097 C86.7319834,25.9990722 86.679372,26.1452058 86.562241,26.2621127 C86.4518218,26.3727413 86.3000494,26.4316278 86.1474112,26.4316278 C86.0014847,26.4316278 85.8497123,26.3727413 85.7384273,26.2621127 C85.622162,26.1452058 85.563272,25.9990722 85.563272,25.8473097 Z M84.0853868,27.9156961 C83.9684722,27.7987892 83.9158608,27.6526555 83.9158608,27.500893 C83.9158608,27.3484811 83.9684722,27.2023474 84.0853868,27.08609 C84.3131535,26.8576885 84.6810009,26.8576885 84.9087675,27.08609 C85.0256819,27.2023474 85.0782935,27.3484811 85.0782935,27.500893 C85.0782935,27.6526555 85.0256819,27.7987892 84.9087675,27.9156961 C84.7981319,28.0263247 84.6463595,28.0852111 84.5002164,28.0852111 C84.3477949,28.0852111 84.1960225,28.0263247 84.0853868,27.9156961 M82.431697,29.5627846 C82.320628,29.4521561 82.262171,29.2997441 82.262171,29.1536104 C82.262171,29.0018479 82.320628,28.8559308 82.431697,28.7388074 C82.6594636,28.5114884 83.0331567,28.5114884 83.2550777,28.7388074 C83.3722087,28.8559308 83.4308824,29.0018479 83.4308824,29.1536104 C83.4308824,29.2997441 83.3722087,29.4521561 83.2550777,29.5627846 C83.144442,29.6799081 82.9926696,29.738145 82.8465265,29.738145 C82.6941047,29.738145 82.5481782,29.6799081 82.431697,29.5627846 M80.7782235,31.216368 C80.6669381,31.1057394 80.6084811,30.9533274 80.6084811,30.8071938 C80.6084811,30.6554313 80.6669381,30.5095141 80.7782235,30.3923907 C81.0057734,30.1648552 81.3794668,30.1648552 81.6078829,30.3923907 C81.7185188,30.5095141 81.7774089,30.6554313 81.7774089,30.8071938 C81.7774089,30.9533274 81.7185188,31.1057394 81.6078829,31.216368 C81.4909685,31.3334914 81.3391961,31.3915119 81.1930533,31.3915119 C81.0412809,31.3915119 80.8951378,31.3334914 80.7782235,31.216368 M79.1245336,32.869735 C79.0132482,32.7593227 78.955224,32.6069108 78.955224,32.4607772 C78.955224,32.3090146 79.0132482,32.1572522 79.1245336,32.0459741 C79.3523002,31.8182221 79.7264264,31.8182221 79.954193,32.0459741 C80.0650453,32.1572522 80.123719,32.3090146 80.123719,32.4607772 C80.123719,32.6069108 80.0650453,32.7593227 79.954193,32.869735 C79.8372787,32.9870747 79.6911355,33.0394665 79.5393631,33.0394665 C79.387591,33.0394665 79.2414479,32.9870747 79.1245336,32.869735 M77.4766894,34.5233183 C77.3597747,34.4122566 77.3015341,34.2602777 77.3015341,34.1085151 C77.3015341,33.9623815 77.3597747,33.8108357 77.4766894,33.693712 C77.7042393,33.4718056 78.0729529,33.4718056 78.3005031,33.693712 C78.4117885,33.8108357 78.4702455,33.9623815 78.4702455,34.1085151 C78.4702455,34.2602777 78.4117885,34.4122566 78.3005031,34.5233183 C78.1835888,34.6402253 78.0374457,34.6928331 77.8856733,34.6928331 C77.7397468,34.6928331 77.587758,34.6402253 77.4766894,34.5233183 M75.8229995,36.1769015 C75.7060849,36.0656235 75.6478442,35.913861 75.6478442,35.7620984 C75.6478442,35.6159648 75.7060849,35.4642023 75.8229995,35.3472956 C76.0514155,35.1251722 76.419263,35.1251722 76.6470296,35.3472956 C76.7639443,35.4642023 76.8165556,35.6159648 76.8165556,35.7620984 C76.8165556,35.913861 76.7639443,36.0656235 76.6470296,36.1769015 C76.5357446,36.2881796 76.3839722,36.3464167 76.2321998,36.3464167 C76.086057,36.3464167 75.9342845,36.2881796 75.8229995,36.1769015 M74.1693093,37.8304848 C74.052395,37.7135781 74,37.5674445 74,37.415682 C74,37.2637028 74.052395,37.1177859 74.1693093,37.0008789 C74.3977257,36.7726938 74.7655731,36.7726938 74.9933398,37.0008789 C75.1102541,37.1177859 75.1687114,37.2637028 75.1687114,37.415682 C75.1687114,37.5674445 75.1102541,37.7135781 74.9933398,37.8304848 C74.8827041,37.9411135 74.7302823,38 74.5841392,38 C74.4323671,38 74.2805947,37.9411135 74.1693093,37.8304848" id="Fill-13"></path>
            <path d="M93.0008146,18.0002577 C92.8895292,17.8837838 92.831505,17.7315883 92.831505,17.5854547 C92.831505,17.4336922 92.8895292,17.2875585 93.0008146,17.1706516 C93.2285812,16.9431161 93.596645,16.9431161 93.8248447,17.1706516 C93.9413263,17.2875585 94,17.4336922 94,17.5854547 C94,17.7315883 93.9413263,17.8837838 93.8248447,18.0002577 C93.7135597,18.1115358 93.5617873,18.1697728 93.4156441,18.1697728 C93.263872,18.1697728 93.1116666,18.1115358 93.0008146,18.0002577 M91.3471244,19.6538411 C91.2360557,19.5369342 91.1778151,19.3849552 91.1778151,19.239038 C91.1778151,19.0872756 91.2360557,18.9411419 91.3471244,18.824235 C91.5748914,18.596483 91.9492339,18.596483 92.1767841,18.824235 C92.2880695,18.9411419 92.3463101,19.0872756 92.3463101,19.239038 C92.3463101,19.3849552 92.2880695,19.5369342 92.1767841,19.6538411 C92.0598698,19.7651192 91.9137267,19.8231396 91.7619543,19.8231396 C91.6101822,19.8231396 91.464039,19.7651192 91.3471244,19.6538411 M89.6936512,21.3015791 C89.5823659,21.1903011 89.5241252,21.0385386 89.5241252,20.8924049 C89.5241252,20.7408589 89.5823659,20.5888799 89.6936512,20.4776019 C89.9212012,20.2500664 90.295544,20.2500664 90.5233106,20.4776019 C90.6343793,20.5888799 90.6928366,20.7408589 90.6928366,20.8924049 C90.6928366,21.0385386 90.6343793,21.1903011 90.5233106,21.3015791 C90.4063963,21.418486 90.2602532,21.476723 90.1084811,21.476723 C89.956492,21.476723 89.8105655,21.418486 89.6936512,21.3015791 M88.0399614,22.9551625 C87.9293254,22.8438844 87.8706517,22.6921219 87.8706517,22.5403594 C87.8706517,22.3942258 87.9293254,22.2424633 88.0399614,22.1311852 C88.267728,21.9036497 88.6418541,21.9036497 88.8696208,22.1311852 C88.9809061,22.2424633 89.0391468,22.3942258 89.0391468,22.5403594 C89.0391468,22.6921219 88.9809061,22.8438844 88.8696208,22.9551625 C88.7527065,23.0720694 88.6065633,23.124461 88.4547909,23.124461 C88.3086481,23.124461 88.1568757,23.0720694 88.0399614,22.9551625 M86.3921171,24.6085293 C86.2756355,24.4974678 86.2169619,24.3454888 86.2169619,24.1937263 C86.2169619,24.0475927 86.2756355,23.8953972 86.3921171,23.7847686 C86.6146875,23.5507383 86.9881643,23.5507383 87.2159309,23.7847686 C87.3328452,23.8953972 87.3854569,24.0475927 87.3854569,24.1937263 C87.3854569,24.3454888 87.3328452,24.4974678 87.2159309,24.6085293 C87.1052953,24.7256528 86.9528735,24.7780444 86.801101,24.7780444 C86.6549579,24.7780444 86.5031858,24.7256528 86.3921171,24.6085293 M84.563272,25.8473097 C84.563272,25.701176 84.622162,25.5489806 84.7384273,25.4325066 C84.9668433,25.2043216 85.3346908,25.2043216 85.562241,25.4325066 C85.679372,25.5489806 85.7319834,25.701176 85.7319834,25.8473097 C85.7319834,25.9990722 85.679372,26.1452058 85.562241,26.2621127 C85.4518218,26.3727413 85.3000494,26.4316278 85.1474112,26.4316278 C85.0014847,26.4316278 84.8497123,26.3727413 84.7384273,26.2621127 C84.622162,26.1452058 84.563272,25.9990722 84.563272,25.8473097 Z M83.0853868,27.9156961 C82.9684722,27.7987892 82.9158608,27.6526555 82.9158608,27.500893 C82.9158608,27.3484811 82.9684722,27.2023474 83.0853868,27.08609 C83.3131535,26.8576885 83.6810009,26.8576885 83.9087675,27.08609 C84.0256819,27.2023474 84.0782935,27.3484811 84.0782935,27.500893 C84.0782935,27.6526555 84.0256819,27.7987892 83.9087675,27.9156961 C83.7981319,28.0263247 83.6463595,28.0852111 83.5002164,28.0852111 C83.3477949,28.0852111 83.1960225,28.0263247 83.0853868,27.9156961 M81.431697,29.5627846 C81.320628,29.4521561 81.262171,29.2997441 81.262171,29.1536104 C81.262171,29.0018479 81.320628,28.8559308 81.431697,28.7388074 C81.6594636,28.5114884 82.0331567,28.5114884 82.2550777,28.7388074 C82.3722087,28.8559308 82.4308824,29.0018479 82.4308824,29.1536104 C82.4308824,29.2997441 82.3722087,29.4521561 82.2550777,29.5627846 C82.144442,29.6799081 81.9926696,29.738145 81.8465265,29.738145 C81.6941047,29.738145 81.5481782,29.6799081 81.431697,29.5627846 M79.7782235,31.216368 C79.6669381,31.1057394 79.6084811,30.9533274 79.6084811,30.8071938 C79.6084811,30.6554313 79.6669381,30.5095141 79.7782235,30.3923907 C80.0057734,30.1648552 80.3794668,30.1648552 80.6078829,30.3923907 C80.7185188,30.5095141 80.7774089,30.6554313 80.7774089,30.8071938 C80.7774089,30.9533274 80.7185188,31.1057394 80.6078829,31.216368 C80.4909685,31.3334914 80.3391961,31.3915119 80.1930533,31.3915119 C80.0412809,31.3915119 79.8951378,31.3334914 79.7782235,31.216368 M78.1245336,32.869735 C78.0132482,32.7593227 77.955224,32.6069108 77.955224,32.4607772 C77.955224,32.3090146 78.0132482,32.1572522 78.1245336,32.0459741 C78.3523002,31.8182221 78.7264264,31.8182221 78.954193,32.0459741 C79.0650453,32.1572522 79.123719,32.3090146 79.123719,32.4607772 C79.123719,32.6069108 79.0650453,32.7593227 78.954193,32.869735 C78.8372787,32.9870747 78.6911355,33.0394665 78.5393631,33.0394665 C78.387591,33.0394665 78.2414479,32.9870747 78.1245336,32.869735 M76.4766894,34.5233183 C76.3597747,34.4122566 76.3015341,34.2602777 76.3015341,34.1085151 C76.3015341,33.9623815 76.3597747,33.8108357 76.4766894,33.693712 C76.7042393,33.4718056 77.0729529,33.4718056 77.3005031,33.693712 C77.4117885,33.8108357 77.4702455,33.9623815 77.4702455,34.1085151 C77.4702455,34.2602777 77.4117885,34.4122566 77.3005031,34.5233183 C77.1835888,34.6402253 77.0374457,34.6928331 76.8856733,34.6928331 C76.7397468,34.6928331 76.587758,34.6402253 76.4766894,34.5233183 M74.8229995,36.1769015 C74.7060849,36.0656235 74.6478442,35.913861 74.6478442,35.7620984 C74.6478442,35.6159648 74.7060849,35.4642023 74.8229995,35.3472956 C75.0514155,35.1251722 75.419263,35.1251722 75.6470296,35.3472956 C75.7639443,35.4642023 75.8165556,35.6159648 75.8165556,35.7620984 C75.8165556,35.913861 75.7639443,36.0656235 75.6470296,36.1769015 C75.5357446,36.2881796 75.3839722,36.3464167 75.2321998,36.3464167 C75.086057,36.3464167 74.9342845,36.2881796 74.8229995,36.1769015 M73.1693093,37.8304848 C73.052395,37.7135781 73,37.5674445 73,37.415682 C73,37.2637028 73.052395,37.1177859 73.1693093,37.0008789 C73.3977257,36.7726938 73.7655731,36.7726938 73.9933398,37.0008789 C74.1102541,37.1177859 74.1687114,37.2637028 74.1687114,37.415682 C74.1687114,37.5674445 74.1102541,37.7135781 73.9933398,37.8304848 C73.8827041,37.9411135 73.7302823,38 73.5841392,38 C73.4323671,38 73.2805947,37.9411135 73.1693093,37.8304848" id="Fill-13" transform="translate(83.500000, 27.500000) scale(-1, 1) translate(-83.500000, -27.500000) "></path>
            <path d="M80.0194466,17.6048094 L76.5277796,14.1178701 C79.2259214,12.0431088 82.2075578,11.0033904 85.4729491,11.0000069 C88.7214347,10.9968971 91.7048918,12.0394725 94.4241007,14.123844 L90.9267119,17.6162377 C89.2566937,16.5323645 87.4379057,15.9897786 85.4700882,15.9939344 C83.476262,15.9980901 81.6600749,16.5370398 80.0194466,17.6048094 Z M76.5776122,31.9460129 L73.0888064,35.430095 C71.0278775,32.7322301 69.9968929,29.7541111 70.000007,26.4939203 C70.0033952,23.2038599 71.0296982,20.225741 73.078663,17.5595636 L76.5661686,21.0423472 C75.472763,22.695559 74.9211187,24.5113648 74.9172173,26.4918424 C74.9135762,28.4466063 75.4688619,30.2639705 76.5776122,31.9460129 Z M90.9550351,35.4118618 L94.4326573,38.8847754 C91.7672868,40.9353813 88.7986544,41.973801 85.5267611,41.9995147 C82.2218365,42.0257478 79.2193933,40.9883674 76.5183906,38.8912688 L79.9913311,35.4230304 C81.6639502,36.5588505 83.5019843,37.1222152 85.5064742,37.1087091 C87.4794936,37.0952029 89.2949005,36.5276823 90.9550351,35.4118618 Z M94.3933063,21.040581 L97.8870537,17.5515638 C99.9869957,20.2489094 101.025783,23.2472876 100.999514,26.5477373 C100.973765,29.8024737 99.9318571,32.7652684 97.8763903,35.4374196 L94.386544,31.9522985 C95.4633039,30.318307 96.0157284,28.5315915 96.0388762,26.5905935 C96.0628042,24.578688 95.5127204,22.728857 94.3933063,21.040581 Z" id="Combined-Shape"></path>
            <path d="M95.9998391,36 C97.6568411,36 99,37.3434082 99,39 C99,40.6565917 97.6568411,42 95.9998391,42 C94.3431589,42 93,40.6565917 93,39 C93,37.3434082 94.3431589,36 95.9998391,36" id="Fill-15"></path>
            <path d="M72,36 C73.6565917,36 75,37.3431589 75,38.9998391 C75,40.6568411 73.6565917,42 72,42 C70.3430869,42 69,40.6568411 69,38.9998391 C69,37.3431589 70.3430869,36 72,36" id="Fill-16"></path>
            <path d="M96,11 C97.6565917,11 99,12.3430868 99,14 C99,15.6569132 97.6565917,17 96,17 C94.3434083,17 93,15.6569132 93,14 C93,12.3430868 94.3434083,11 96,11" id="Fill-17"></path>
            <path d="M72,11 C73.6569131,11 75,12.3430868 75,14 C75,15.6565916 73.6569131,17 72,17 C70.3430869,17 69,15.6565916 69,14 C69,12.3430868 70.3430869,11 72,11" id="Fill-18"></path>
        </g>
    </g>
</svg>