<?xml version="1.0" encoding="UTF-8"?>
<svg width="198px" height="66px" viewBox="0 0 198 66" version="1.1" xmlns="http://www.w3.org/2000/svg" xmlns:xlink="http://www.w3.org/1999/xlink">
    <title>logo-creative-tim</title>
    <g id="logo-creative-tim" stroke="none" stroke-width="1" fill="none" fill-rule="evenodd">
        <g id="logo-creative-tim-white-copy">
            <rect id="Rectangle" fill="#FFFFFF" x="0" y="0" width="60" height="60" rx="30"></rect>
            <g id="Group" transform="translate(78.000000, 4.000000)" fill="#1C1C1C" fill-rule="nonzero">
                <g>
                    <g id="c">
                        <path d="M5.16747285,21.2511691 C3.5944485,20.3742005 2.28279243,19.0592927 1.37690802,17.4512066 C-0.458969341,14.057326 -0.458969341,9.90210346 1.37690802,6.50822287 C2.28580972,4.90192536 3.5966456,3.58685824 5.16747285,2.70542252 C6.832099,1.77346969 8.69559056,1.30079143 10.5825655,1.33187374 C12.100837,1.31212595 13.6073369,1.61326234 15.0121113,2.21730188 C16.0534079,2.67385504 17.0052861,3.32809092 17.8198368,4.14708116 C17.9788191,4.31052232 18.0668089,4.5352105 18.0632259,4.76859177 C18.0596429,5.00197303 17.9648011,5.22357744 17.8008839,5.38157233 L16.5987334,6.5649811 C16.2860524,6.87312931 15.7986128,6.87312931 15.4859319,6.5649811 C14.1927649,5.33168674 12.4984919,4.66358543 10.7504333,4.69763585 C9.48132186,4.67528316 8.22810171,4.99585456 7.1114911,5.62847055 C6.0596474,6.22811901 5.18919572,7.12475129 4.59888813,8.21664513 C3.39839007,10.5625483 3.39839007,13.3826916 4.59888813,15.7285948 C5.18919572,16.8204887 6.0596474,17.7171209 7.1114911,18.3167693 C8.22810171,18.9493853 9.48132186,19.2699568 10.7504333,19.2476041 C12.5004544,19.2803654 14.1953103,18.6055541 15.4832242,17.3632313 C15.7966398,17.0515091 16.2880253,17.0515091 16.6014409,17.3632313 L17.806299,18.5665055 C17.9681387,18.7247348 18.0613716,18.945331 18.0645904,19.177282 C18.0675045,19.4092329 17.9801389,19.632452 17.8225443,19.7953208 C17.0038159,20.6176503 16.0461755,21.2730226 14.9985735,21.727938 C13.5881625,22.3324389 12.076454,22.6344773 10.5527824,22.6162041 C8.67661654,22.6441143 6.8241527,22.1745631 5.16747285,21.2511691 Z" id="Path"></path>
                        <path d="M30.9677727,7.51247514 L30.9677727,9.1983792 C30.9677727,9.66942427 30.5903665,10.0512818 30.1248896,10.0512818 L30.1248896,10.0512818 C28.6995865,10.0512818 27.5870636,10.4710993 26.7873205,11.3107345 C25.9875775,12.1503697 25.587706,13.3605436 25.587706,14.9412565 L25.587706,21.7644769 C25.587706,22.235522 25.2103625,22.6173795 24.7448856,22.6173795 L22.7783044,22.6173795 C22.3128275,22.6173795 21.9354839,22.235522 21.9354839,21.7644769 L21.9354839,7.65746857 C21.9354839,7.18642349 22.3128275,6.80456601 22.7783044,6.80456601 L24.5650838,6.80456601 C25.0305607,6.80456601 25.4079043,7.18642349 25.4079043,7.65746857 L25.4079043,9.11024594 C26.3443715,7.64704421 27.8989071,6.82825775 30.071511,6.65388656 C30.3051168,6.63887548 30.5343695,6.72285327 30.7043538,6.88570388 C30.8743381,7.04855449 30.9697412,7.2756077 30.9677727,7.51247514 L30.9677727,7.51247514 Z" id="Path"></path>
                        <path d="M46.9347532,15.7904105 L35.8233194,15.7904105 C36.0007913,16.883963 36.5866369,17.8627681 37.4557533,18.5178095 C38.4076685,19.2122167 39.5545103,19.56632 40.7206212,19.525883 C41.9951966,19.5588938 43.2426812,19.1440864 44.2575616,18.3497973 C44.6033371,18.085261 45.0893395,18.1428821 45.3676166,18.4814068 L46.2300859,19.5006811 C46.517049,19.8366237 46.49791,20.3450795 46.1865544,20.6571655 C45.5901908,21.2253169 44.895169,21.6727516 44.1378497,21.9760617 C41.5589431,22.9471361 38.7090701,22.8109227 36.2287071,21.5980342 C35.0050305,20.9581904 33.985972,19.9696283 33.2930467,18.7502264 C32.5927294,17.495671 32.2354676,16.0693877 32.2591719,14.6227254 C32.2383047,13.1879653 32.5855425,11.7729271 33.2658395,10.5204262 C33.9186891,9.32143039 34.8859998,8.3355648 36.0573016,7.67541866 C37.291637,6.98359232 38.6786344,6.63153599 40.083972,6.65334411 C41.4653924,6.62924204 42.8289951,6.97672321 44.0399036,7.66141763 C45.189654,8.31997703 46.133376,9.30195239 46.760627,10.4924241 C47.4328782,11.7885008 47.7701561,13.2406653 47.7400874,14.7095317 C47.7400874,14.7879374 47.7400874,14.8747438 47.7400874,14.9727509 C47.7284383,15.4236169 47.3729399,15.7845562 46.9347532,15.7904105 Z M37.2272126,10.6100327 C36.4352122,11.3144967 35.9252825,12.2963013 35.7961121,13.3654336 L44.3881562,13.3654336 C44.1498097,11.1401425 42.2792068,9.48398796 40.1057378,9.57395713 C39.0550137,9.54277644 38.0300529,9.9116934 37.2272126,10.6100327 L37.2272126,10.6100327 Z" id="Shape"></path>
                        <path d="M62.6881193,8.30408961 C63.9067924,9.40519316 64.5161291,11.0633805 64.5161291,13.2786515 L64.5161291,21.5649223 C64.5161291,22.0287446 64.1389734,22.404747 63.6737283,22.404747 L61.9074946,22.404747 C61.4422494,22.404747 61.0650938,22.0287446 61.0650938,21.5649223 L61.0650938,20.5151414 C60.5954331,21.2133513 59.9277365,21.7562058 59.147228,22.074416 C58.1954914,22.4582216 57.174564,22.6421509 56.1482811,22.6147032 C55.0932735,22.6376301 54.0456419,22.4342817 53.0763262,22.0184277 C52.255867,21.6648287 51.5514725,21.0886811 51.0433323,20.3555747 C50.5637458,19.6446121 50.3129816,18.8047771 50.3244836,17.9480771 C50.284862,16.6443631 50.8658584,15.3987294 51.891349,14.5887781 C52.9340541,13.7433545 54.5776716,13.3206427 56.8222017,13.3206427 L60.8601096,13.3206427 L60.8601096,13.0854918 C60.8601096,11.9955859 60.5334453,11.1557612 59.8801167,10.5660176 C59.2267881,9.97627399 58.2561551,9.68420161 56.9682179,9.68980044 C56.0891202,9.69052915 55.2155544,9.82843651 54.3792394,10.0985151 C53.890006,10.2554655 53.4192611,10.4647757 52.9752381,10.7227849 C52.7773783,10.8443618 52.5379253,10.8790389 52.3135459,10.8186099 C52.0891664,10.7581809 51.8998002,10.6080159 51.790261,10.4036515 L51.1696924,9.25309157 C50.9504222,8.86468627 51.0736793,8.37316538 51.4504926,8.13332524 C52.1709982,7.70561944 52.9452873,7.37519946 53.7530548,7.1507303 C54.9403543,6.81459313 56.1692254,6.64684687 57.4034583,6.65217043 C59.7060205,6.65217043 61.4675742,7.20298606 62.6881193,8.30408961 Z M59.3494041,19.3337879 C60.048538,18.9316027 60.5826145,18.2960419 60.8573016,17.5393623 L60.8573016,15.7309397 L57.083346,15.7309397 C54.9736,15.7309397 53.919663,16.4214623 53.921535,17.8025075 C53.9023691,18.426526 54.2001234,19.0181081 54.7133917,19.3757792 C55.2384883,19.7676973 55.9713769,19.960857 56.9064418,19.960857 C57.7627291,19.9765135 58.607172,19.7597585 59.3494041,19.3337879 L59.3494041,19.3337879 Z" id="Shape"></path>
                        <path d="M77.3631142,20.9832286 C77.5099253,21.3671159 77.3606536,21.8062536 77.0161916,22.0038299 C76.7433941,22.1561502 76.4555583,22.2763053 76.1578793,22.3621261 C75.5785062,22.5348899 74.9790188,22.6207802 74.3770098,22.6174766 C72.8060071,22.6174766 71.5922062,22.1838828 70.7356072,21.3170955 C69.879008,20.4503082 69.4507084,19.1836044 69.4507084,17.5169841 L69.4507084,10.2560572 L67.8677134,10.2560572 C67.4419354,10.2560572 67.0967743,9.89147839 67.0967743,9.44174764 L67.0967743,8.25285566 C67.0967743,7.80312491 67.4419354,7.4385461 67.8677134,7.4385461 L69.455848,7.4385461 L69.455848,4.80561183 C69.455848,4.35588108 69.8010093,3.99130226 70.2267872,3.99130226 L72.0256454,3.99130226 C72.4514232,3.99130226 72.7965845,4.35588108 72.7965845,4.80561183 L72.7965845,7.4385461 L75.8520734,7.4385461 C76.2778514,7.4385461 76.6230126,7.80312491 76.6230126,8.25285566 L76.6230126,9.44174764 C76.6230126,9.89147839 76.2778514,10.2560572 75.8520734,10.2560572 L72.7965845,10.2560572 L72.7965845,17.4545538 C72.7965845,18.189242 72.9679043,18.7502108 73.310544,19.1374602 C73.7000819,19.5464408 74.237664,19.7581384 74.7856076,19.7183344 C75.1986234,19.7238145 75.6090201,19.6483459 75.9959821,19.4957564 C76.3904221,19.3408092 76.829623,19.5486018 76.9827842,19.9626273 L77.3631142,20.9832286 Z" id="Path"></path>
                        <path d="M82.1836382,6.65217043 L84.2679947,6.65217043 C84.7613482,6.65217043 85.1612903,7.03777739 85.1612903,7.51344766 L85.1612903,21.7561022 C85.1612903,22.2317725 84.7613482,22.6173795 84.2679947,22.6173795 L82.1836382,22.6173795 C81.6902846,22.6173795 81.2903032,22.2317725 81.2903032,21.7561022 L81.2903032,7.51918952 C81.2887561,7.28977136 81.3821702,7.06922414 81.5498679,6.90645935 C81.7175656,6.74369455 81.9456859,6.65217043 82.1836382,6.65217043 Z" id="Path"></path>
                        <path d="M103.157828,7.86009408 L97.4812943,22.0923685 C97.3554195,22.4123099 97.0631781,22.6193954 96.7404134,22.6173941 L94.2192861,22.6173941 C93.8974891,22.6182366 93.6065704,22.4113442 93.4810702,22.0923685 L87.8098662,7.86009408 C87.7003973,7.59277461 87.7243743,7.28392929 87.8735433,7.03987727 C88.0227123,6.79582527 88.2767039,6.64989249 88.5480822,6.65203257 L90.4136098,6.65203257 C90.7386351,6.65008311 91.0325668,6.85988792 91.1571558,7.18304979 L95.5598009,18.4919846 L100.090368,7.17444329 C100.216688,6.85659164 100.507428,6.65095583 100.828584,6.65203257 L102.411617,6.65203257 C102.684408,6.64692521 102.940919,6.79165236 103.092012,7.03620392 C103.243105,7.28075547 103.267918,7.59136502 103.157828,7.86009408 Z" id="Path"></path>
                        <rect id="Rectangle" x="81.2903226" y="0" width="3.87096775" height="3.99130226" rx="0.9"></rect>
                        <path d="M119.195292,15.790465 L108.081894,15.790465 C108.257735,16.884669 108.844042,17.8640824 109.714617,18.5178902 C110.66679,19.2121161 111.813771,19.5662035 112.980062,19.5259734 C114.254894,19.5592089 115.502669,19.1443741 116.517627,18.3498763 C116.863954,18.0835483 117.352008,18.1412614 117.6306,18.4814872 L118.4905,19.5007713 C118.778238,19.8359856 118.760293,20.3444155 118.449681,20.6572669 C117.852349,21.2242608 117.157429,21.671555 116.400615,21.9761758 C113.820301,22.9470925 110.969155,22.8108879 108.487354,21.5981445 C107.263994,20.9575141 106.244948,19.9691286 105.551175,18.7503093 C104.851996,17.4952131 104.494762,16.0692798 104.517117,14.6227686 C104.496247,13.1879947 104.843546,11.7729428 105.523963,10.5204298 C106.178721,9.32186926 107.146921,8.33622311 108.318639,7.6753949 C109.553193,6.9835619 110.940435,6.63150217 112.346021,6.65331051 C113.726781,6.62956744 115.089659,6.97704473 116.299931,7.66139374 C117.449609,8.32033237 118.393408,9.30222334 119.021135,10.4924275 C119.692559,11.7887772 120.028957,13.2409413 119.998047,14.7095757 C119.998047,14.7879822 119.998047,14.8747893 119.998047,14.9727974 C119.986444,15.4225997 119.632496,15.783124 119.195292,15.790465 L119.195292,15.790465 Z M109.486036,10.6100372 C108.69309,11.3142195 108.182117,12.2960036 108.051961,13.3654648 L116.645524,13.3654648 C116.52877,12.3063395 116.034244,11.3294758 115.257709,10.6240384 C113.572881,9.23349144 111.177216,9.22767994 109.486036,10.6100372 L109.486036,10.6100372 Z" id="Shape"></path>
                    </g>
                    <g id="t" transform="translate(0.007619, 32.523412)">
                        <path d="M6.59812493,5.12495502 L0.819303593,5.12495502 C0.366814713,5.12495502 0,4.74673735 0,4.28018222 L0,2.75114344 C0,2.2845883 0.366814713,1.90637063 0.819303593,1.90637063 L16.0774675,1.90637063 C16.5299564,1.90637063 16.8967711,2.2845883 16.8967711,2.75114344 L16.8967711,4.28018222 C16.8967711,4.74673735 16.5299564,5.12495502 16.0774675,5.12495502 L10.2877221,5.12495502 L10.2877221,21.589577 C10.2877221,22.0561322 9.9209074,22.4343497 9.46841851,22.4343497 L7.41742853,22.4343497 C6.96493964,22.4343497 6.59812493,22.0561322 6.59812493,21.589577 L6.59812493,5.12495502 Z" id="Path"></path>
                        <path d="M52.9870944,8.30974849 C54.1068092,9.45676224 54.6666667,11.1735283 54.6666667,13.4600467 L54.6666667,21.5923929 C54.6666667,22.0589481 54.2998519,22.4371657 53.8473631,22.4371657 L51.9356548,22.4371657 C51.4831658,22.4371657 51.1163511,22.0589481 51.1163511,21.5923929 L51.1163511,13.9303035 C51.1163511,12.5617716 50.8223122,11.5292715 50.2342343,10.8328033 C49.6461563,10.136335 48.8013633,9.78903953 47.6998551,9.79091681 C46.6148906,9.74343785 45.5641181,10.1879249 44.8240995,11.0073896 C44.0958297,11.8202489 43.7316947,12.9794649 43.7316947,14.4850377 L43.7316947,21.589577 C43.7316947,22.0561322 43.3648801,22.4343497 42.9123912,22.4343497 L41.0006828,22.4343497 C40.5481939,22.4343497 40.1813792,22.0561322 40.1813792,21.589577 L40.1813792,13.9303035 C40.1813792,12.5617716 39.8864299,11.5292715 39.2965313,10.8328033 C38.7066327,10.136335 37.8627501,9.78903953 36.7648832,9.79091681 C35.5504932,9.79091681 34.5873563,10.1917146 33.8754726,10.9933101 C33.1635888,11.7949056 32.8076469,12.9588148 32.8076469,14.4850377 L32.8076469,21.589577 C32.8076469,22.0561322 32.4408321,22.4343497 31.9883432,22.4343497 L30.0766349,22.4343497 C29.624146,22.4343497 29.2573313,22.0561322 29.2573313,21.589577 L29.2573313,7.61985071 C29.2573313,7.15329557 29.624146,6.7750779 30.0766349,6.7750779 L31.8162895,6.7750779 C32.2687784,6.7750779 32.6355931,7.15329557 32.6355931,7.61985071 L32.6355931,8.7659258 C33.2095766,8.05817521 33.9414673,7.50451295 34.7685134,7.15240975 C35.671542,6.76887461 36.6403882,6.57731868 37.616959,6.58922788 C38.6627974,6.56925 39.6993667,6.79456301 40.6483822,7.24815066 C41.5150014,7.67488639 42.2420296,8.35307549 42.7403374,9.19957585 C43.3815197,8.3652318 44.2114214,7.70581073 45.157283,7.27912567 C46.1887933,6.80861968 47.3066662,6.57329237 48.4344974,6.58922788 C50.3516677,6.59298243 51.8692001,7.1664893 52.9870944,8.30974849 Z" id="Path"></path>
                        <path d="M21.2800453,6.81450063 L23.1917537,6.81450063 C23.6442426,6.81450063 24.0110573,7.19271829 24.0110573,7.65927343 L24.0110573,21.6318156 C24.0110573,22.0983708 23.6442426,22.4765884 23.1917537,22.4765884 L21.2800453,22.4765884 C20.8275564,22.4765884 20.4607418,22.0983708 20.4607418,21.6318156 L20.4607418,7.65927343 C20.4607418,7.19271829 20.8275564,6.81450063 21.2800453,6.81450063 Z" id="Path"></path>
                        <rect id="Rectangle" x="20.4552797" y="0" width="3.55850861" height="3.66912989" rx="0.9"></rect>
                    </g>
                </g>
            </g>
            <g id="icon" transform="translate(15.000000, 17.000000)" fill="#1C1C1C" fill-rule="nonzero">
                <g id="Group">
                    <path d="M29.4210602,0 L1.58086197,0 C0.70777601,0 0,0.707732125 0,1.58076395 L0,14.83635 C0,15.7093818 0.70777601,16.417114 1.58086197,16.417114 L7.29286262,16.417114 L7.29286262,29.419236 C7.292349,29.8383027 7.45847301,30.2403813 7.75463496,30.5368878 C8.05079691,30.8333943 8.45269668,31 8.87178962,31 L22.1281976,31 C23.0012836,31 23.7090596,30.2922679 23.7090596,29.419236 L23.7090596,16.4229185 L29.4210602,16.4229185 C29.8401532,16.4229188 30.242053,16.2563128 30.5382149,15.9598063 C30.8343768,15.6632998 31.0005008,15.2612212 31,14.8421545 L31,1.58076395 C31.0005008,1.1616973 30.8343768,0.759618697 30.5382149,0.463112198 C30.242053,0.166605703 29.8401532,0 29.4210602,0 Z M1.83240671,1.83422794 L14.5837903,1.83422794 L14.5837903,14.5848209 L1.83240671,14.5848209 L1.83240671,1.83422794 Z M21.8766529,29.1677069 L9.12526931,29.1677069 L9.12526931,16.4229185 L21.8766529,16.4229185 L21.8766529,29.1677069 Z M29.1675805,14.5848209 L16.416197,14.5848209 L16.416197,1.83422794 L29.1675805,1.83422794 L29.1675805,14.5848209 Z" id="Shape"></path>
                    <path d="M10.6814466,10.3087781 C11.0450184,10.6557793 11.6137976,10.6466042 11.9663649,10.2880508 C12.3189321,9.9294975 12.327954,9.35106116 11.9867461,8.98131637 L9.03910709,5.98363028 C8.67767221,5.61949167 8.09524249,5.61949167 7.73380757,5.98363028 L4.77837572,8.98131637 C4.53271288,9.21578254 4.43210216,9.56769944 4.51585357,9.89956814 C4.59960502,10.2314368 4.85442579,10.4905842 5.18075387,10.5757576 C5.50708195,10.660931 5.85312354,10.558612 6.08367523,10.3087781 L8.3786645,7.97482297 L10.6814466,10.3087781 Z" id="Path"></path>
                    <path d="M20.3284876,10.348716 L22.6381503,7.99448937 L24.947813,10.348716 C25.3137094,10.6987311 25.8861251,10.6894762 26.2409466,10.3278087 C26.595768,9.96614113 26.6048476,9.38268083 26.2614581,9.00972465 L23.2949729,5.98600231 C22.9312271,5.61870097 22.3450735,5.61870097 21.9813277,5.98600231 L19.0148425,9.00972465 C18.671453,9.38268083 18.6805326,9.96614113 19.035354,10.3278087 C19.3901755,10.6894762 19.9625912,10.6987311 20.3284876,10.348716 L20.3284876,10.348716 Z" id="Path"></path>
                    <path d="M13.3888506,20.6704863 C13.023485,20.3226386 12.4526905,20.332707 12.0993958,20.6932314 C11.746101,21.0537559 11.7379089,21.6345224 12.0808893,22.0052136 L15.0389543,25.0128254 C15.2124657,25.1899295 15.448134,25.2894737 15.6939125,25.2894737 C15.9396909,25.2894737 16.1753593,25.1899295 16.3488707,25.0128254 L19.3069356,22.0052136 C19.5412789,21.7671428 19.6329866,21.4199576 19.5475135,21.0944392 C19.4620404,20.7689209 19.2123717,20.5145233 18.8925553,20.4270756 C18.5727389,20.339628 18.2313625,20.4324156 17.9970192,20.6704863 L15.6939125,23.0157075 L13.3888506,20.6704863 Z" id="Path"></path>
                </g>
            </g>
        </g>
    </g>
</svg>